<svg xmlns="http://www.w3.org/2000/svg" width="500" height="500"><path fill="#fff" d="m 249.99691,0 c 4.09149,0 8.183,0.09919 12.2683,0.297564 4.08529,0.204574 8.1644,0.502138 12.2373,0.90509 4.07291,0.402951 8.13341,0.89889 12.18151,1.500216 4.04191,0.601328 8.07762,1.301842 12.08853,2.101544 4.01092,0.793503 8.00322,1.692393 11.97074,2.684272 3.96752,0.998078 7.91024,2.089145 11.82817,3.273201 3.91171,1.190255 7.79864,2.473499 11.64837,3.849732 3.85593,1.38243 7.66846,2.85165 11.45,4.42006 3.78155,1.562209 7.51968,3.223607 11.22064,4.971793 3.69474,1.748187 7.3523,3.589362 10.96026,5.517327 3.60795,1.927964 7.16632,3.942719 10.6751,6.044262 3.50877,2.107744 6.96175,4.296077 10.36513,6.564999 3.40338,2.275123 6.74478,4.630836 10.03658,7.067138 3.28559,2.436302 6.5092,4.953196 9.67082,7.55068 3.1616,2.591283 6.26123,5.263157 9.29267,8.015621 3.03142,2.746265 5.99466,5.566925 8.8835,8.461965 2.89505,2.88885 5.7157,5.85209 8.46197,8.88352 2.74627,3.03143 5.41815,6.13105 8.01562,9.29266 2.59748,3.16162 5.11438,6.38523 7.55069,9.670826 2.43629,3.2856 4.79201,6.63318 7.06713,10.03658 2.26893,3.39718 4.45727,6.85636 6.565,10.36513 2.10155,3.50876 4.1163,7.06713 6.04426,10.6751 1.92797,3.60796 3.76914,7.2655 5.51734,10.96026 1.74818,3.70095 3.40957,7.43909 4.97179,11.22063 1.5684,3.78153 3.03762,7.59408 4.42006,11.45 1.37622,3.84972 2.65948,7.73046 3.84973,11.64838 1.18405,3.91793 2.27512,7.85445 3.267,11.82815 0.99808,3.96752 1.89077,7.95984 2.69046,11.97074 0.79971,4.01091 1.50023,8.04043 2.10155,12.08853 0.59513,4.04811 1.09727,8.10861 1.50021,12.18152 0.40296,4.0729 0.70052,8.152 0.8989,12.23731 0.20458,4.0853 0.30377,8.17679 0.30377,12.2683 0,4.09149 -0.0992,8.1768 -0.30377,12.2621 -0.19838,4.09149 -0.49594,8.17061 -0.8989,12.23731 -0.40294,4.0729 -0.90508,8.13341 -1.50021,12.18151 -0.60132,4.04811 -1.30184,8.07761 -2.10155,12.08852 -0.79969,4.01092 -1.69238,8.00322 -2.69046,11.97074 -0.99188,3.97372 -2.08295,7.91024 -3.267,11.82816 -1.19025,3.91793 -2.47351,7.79865 -3.84973,11.65458 -1.38244,3.84973 -2.85166,7.66846 -4.42006,11.44381 -1.56222,3.78154 -3.22361,7.51968 -4.97179,11.22063 -1.7482,3.69474 -3.58937,7.3523 -5.51734,10.96026 -1.92796,3.60796 -3.94271,7.16632 -6.04426,10.67509 -2.10773,3.50878 -4.29607,6.96796 -6.565,10.36514 -2.27512,3.40338 -4.63084,6.75098 -7.06713,10.03658 -2.43631,3.28559 -4.95321,6.5092 -7.55069,9.67082 -2.59747,3.16162 -5.26935,6.26123 -8.01562,9.29267 -2.74627,3.03142 -5.56692,5.99466 -8.46197,8.88971 -2.88884,2.88884 -5.85208,5.70951 -8.8835,8.45577 -3.03144,2.75246 -6.13107,5.42433 -9.29267,8.01562 -3.16162,2.59749 -6.38523,5.11437 -9.67082,7.55068 -3.2918,2.43631 -6.6332,4.79201 -10.03658,7.06713 -3.40338,2.27513 -6.85636,4.45726 -10.36513,6.565 -3.50878,2.10154 -7.06715,4.1163 -10.6751,6.04427 -3.60796,1.93417 -7.26552,3.76914 -10.96026,5.51732 -3.70096,1.75439 -7.43909,3.40959 -11.22064,4.978 -3.78154,1.5622 -7.59407,3.03762 -11.45,4.41386 -3.84973,1.37624 -7.73666,2.65947 -11.64837,3.84973 -3.91793,1.18405 -7.86065,2.27512 -11.82817,3.2732 -3.96752,0.99188 -7.95982,1.89077 -11.97074,2.68428 -4.01091,0.79969 -8.04662,1.50021 -12.08853,2.10153 -4.0481,0.60133 -8.1086,1.09727 -12.18151,1.50023 -4.0729,0.40294 -8.15201,0.7005 -12.2373,0.90508 -4.0853,0.19838 -8.17681,0.29757 -12.2683,0.29757 -4.09151,0 -8.17681,-0.0992 -12.26212,-0.29757 -4.09149,-0.20458 -8.17059,-0.50214 -12.2435,-0.90508 -4.0667,-0.40296 -8.1272,-0.8989 -12.17531,-1.50023 -4.04812,-0.60132 -8.07762,-1.30184 -12.08852,-2.10153 -4.01711,-0.79351 -8.00323,-1.6924 -11.97695,-2.68428 -3.96752,-0.99808 -7.91023,-2.08915 -11.82196,-3.2732 -3.91792,-1.19026 -7.79865,-2.47349 -11.65458,-3.84973 -3.84973,-1.37624 -7.66846,-2.85166 -11.44379,-4.41386 -3.78155,-1.56841 -7.51968,-3.22361 -11.22064,-4.978 -3.70095,-1.74818 -7.3523,-3.58315 -10.96027,-5.51732 -3.60794,-1.92797 -7.16631,-3.94273 -10.67509,-6.04427 -3.50878,-2.10774 -6.96794,-4.28987 -10.37133,-6.565 -3.39719,-2.27512 -6.74477,-4.63082 -10.03038,-7.06713 -3.285604,-2.43631 -6.509214,-4.95319 -9.670824,-7.55068 -3.16781,-2.59129 -6.26124,-5.26316 -9.29267,-8.01562 -3.03142,-2.74626 -5.99466,-5.56693 -8.88971,-8.45577 -2.88885,-2.89505 -5.7095,-5.85829 -8.46197,-8.88971 -2.74627,-3.03144 -5.41813,-6.13105 -8.00941,-9.29267 -2.59749,-3.16162 -5.11439,-6.38523 -7.55069,-9.67082 -2.4363,-3.2856 -4.79202,-6.6332 -7.06713,-10.03658 -2.27512,-3.39718 -4.46346,-6.85636 -6.56501,-10.36514 -2.10154,-3.50877 -4.11629,-7.06713 -6.05046,-10.67509 -1.92796,-3.60796 -3.76294,-7.26552 -5.51732,-10.96026 -1.74819,-3.70095 -3.403389,-7.43909 -4.971798,-11.22063 -1.562209,-3.77535 -3.03763,-7.59408 -4.413861,-11.44381 -1.376231,-3.85593 -2.659475,-7.73665 -3.84973,-11.65458 C 9.571632,318.65352 8.480565,314.717 7.488686,310.74328 6.496807,306.77576 5.597917,302.78346 4.798214,298.77254 4.004711,294.76163 3.304196,290.73213 2.70287,286.68402 2.101542,282.63592 1.599404,278.57541 1.202652,274.50251 0.799702,270.43581 0.502138,266.35669 0.297564,262.2652 0.099188,258.1799 0,254.09459 0,250.0031 c 0,-4.09151 0.09919,-8.183 0.297564,-12.2683 0.204574,-4.08531 0.502138,-8.16441 0.905088,-12.23731 0.396752,-4.07291 0.89889,-8.13341 1.500218,-12.18152 0.601326,-4.0481 1.301841,-8.07762 2.095344,-12.08853 0.799703,-4.0109 1.698593,-8.00322 2.690472,-11.97074 0.991879,-3.9737 2.082946,-7.91022 3.273201,-11.82815 1.190255,-3.91792 2.473499,-7.79866 3.84973,-11.64838 1.376231,-3.85592 2.851652,-7.66847 4.413861,-11.45 1.568409,-3.78154 3.223608,-7.51968 4.971798,-11.22063 1.75438,-3.69476 3.58936,-7.3523 5.51732,-10.96026 1.93417,-3.60797 3.94892,-7.16634 6.05046,-10.6751 2.10155,-3.50877 4.28989,-6.96795 6.56501,-10.36513 2.27511,-3.4034 4.63083,-6.75098 7.06713,-10.03658 2.4363,-3.285596 4.9532,-6.509206 7.55069,-9.670826 2.59128,-3.16161 5.26314,-6.26123 8.00941,-9.29266 2.75247,-3.03143 5.57312,-5.99467 8.46197,-8.88352 2.89505,-2.89504 5.85829,-5.7157 8.88971,-8.461965 3.03143,-2.752464 6.12486,-5.424338 9.29267,-8.015621 3.16161,-2.597484 6.38522,-5.114378 9.670824,-7.55068 3.28561,-2.436302 6.63319,-4.792015 10.03038,-7.067138 3.40339,-2.268922 6.86255,-4.457255 10.37133,-6.564999 3.50878,-2.101543 7.06715,-4.116298 10.67509,-6.044262 3.60797,-1.927965 7.25932,-3.76914 10.96027,-5.517327 3.70096,-1.748186 7.43909,-3.409584 11.22064,-4.971793 3.77533,-1.56841 7.59406,-3.03763 11.44379,-4.42006 3.85593,-1.376233 7.73666,-2.659477 11.65458,-3.849732 3.91173,-1.184056 7.85444,-2.275123 11.82196,-3.273201 3.97372,-0.991879 7.95984,-1.890769 11.97695,-2.684272 4.0109,-0.799702 8.0404,-1.500216 12.08852,-2.101544 4.04811,-0.601326 8.10861,-1.097265 12.18152,-1.500216 4.0667,-0.402952 8.1458,-0.700516 12.23729,-0.90509 C 241.8201,0.099188 245.9054,0 249.99691,0 Z m 0,0"/><path fill="#0085ca" d="m 432.34145,159.64293 c -29.01246,43.87823 -77.13099,104.75481 -132.99237,125.23091 l -7.12293,2.91365 c 1.32664,0.60133 2.72767,1.01047 4.16589,1.22125 l 2.45491,0.0992 c 1.12825,0.0682 2.30611,0.0806 3.55835,0 h 0.59513 c 14.19007,-0.55792 34.85836,-6.5154 38.86926,7.91025 -47.07085,2.07053 -64.42873,13.66312 -80.77615,21.2386 -25.3115,14.14667 -57.41738,26.45836 -78.42043,6.78817 16.82475,-2.23173 47.86437,-12.49147 58.81843,-22.37927 C 152.4332,301.46304 112.91303,246.0852 85.220996,215.7647 c -9.96838,-11.46241 -20.19713,-21.3626 -30.73584,-22.2057 -25.21233,87.40314 10.6565,180.93112 87.849474,229.06206 77.19299,48.13092 176.95742,39.17922 244.34939,-21.93294 67.39199,-61.10593 86.03311,-159.52513 45.65743,-241.04517 z m 0,0"/><path fill="#003087" d="m 195.52415,256.81606 c 39.73094,36.98469 77.58973,49.04841 116.99832,-6.19304 30.01675,-37.97657 46.7423,-114.67981 99.10731,-124.20185 C 372.36378,75.091434 311.05325,45.452855 246.43233,46.581118 181.81762,47.709379 121.57337,79.455704 84.123746,132.13068 c 42.105264,22.29247 71.781034,88.5066 111.400404,124.68538 z m 0,0"/><path fill="#003087" d="m 482.09039,299.29328 -0.8059,3.21121 -18.72173,5.99467 16.24203,4.02331 -0.63853,2.59749 -20.06075,-4.9842 0.75012,-3.05002 18.68451,-6.14965 -16.22962,-4.02952 0.65093,-2.59749 z m 0,0 m -1.5808,-7.3957 c -2.23794,1.13447 -4.79202,1.49402 -7.25932,1.02908 -2.74627,-0.30377 -5.31276,-1.51261 -7.29031,-3.44677 -1.90317,-2.21315 -2.79586,-5.12059 -2.4611,-8.02183 0.33475,-2.90125 1.86597,-5.52973 4.22788,-7.24692 2.4239,-1.34523 5.23836,-1.81017 7.96603,-1.30804 2.54168,0.29137 4.9284,1.37623 6.81297,3.09963 2.26272,2.13254 3.26699,5.27555 2.66568,8.32557 -0.20458,3.14302 -1.94658,5.97608 -4.66183,7.56928 z m -12.68987,-4.34567 c 1.66141,1.37624 3.67616,2.25033 5.8211,2.51069 2.08915,0.41535 4.25889,0.0495 6.09386,-1.04147 1.67379,-1.07866 2.75866,-2.86404 2.95704,-4.84161 0.37195,-1.96516 -0.13633,-3.99851 -1.38863,-5.55452 -1.60561,-1.72339 -3.80634,-2.77106 -6.14965,-2.94464 -2.04576,-0.37195 -4.1535,-0.0559 -6.00087,0.89269 -1.85358,1.11587 -3.03764,3.08103 -3.14922,5.24456 -0.50213,2.10155 0.19837,4.30847 1.81637,5.7343 z m 0,0 m 18.65974,-20.69928 -0.21079,2.77727 -20.65587,-1.55602 0.22317,-2.77726 z m 0,0 m 0.41533,-4.25887 h -2.46728 l 0.12394,-6.94315 -18.24437,-0.32237 v -2.77106 l 18.24437,0.30377 0.12395,-6.94315 h 2.46728 z m 0,0 m -0.31614,-27.98959 0.19217,3.14923 -20.24054,8.72233 -0.17978,-3.06862 6.06907,-2.51071 -0.47734,-8.121 -6.32943,-1.87838 -0.16738,-2.87024 z m -11.92736,5.36235 8.95172,-3.72575 -9.32366,-2.77105 z m 0,0 m 8.44337,-33.92846 1.38863,9.29887 c 0.24178,1.29563 0.20458,2.62228 -0.11157,3.89932 -0.55792,2.00855 -2.32471,3.44059 -4.40146,3.57077 -1.04767,0.21077 -2.13254,0.11156 -3.12442,-0.29138 -0.83689,-0.41535 -1.54981,-1.02906 -2.08295,-1.79157 -0.1487,0.74391 -0.49594,1.43202 -0.99807,1.99615 -0.70672,0.58893 -1.56221,0.96089 -2.4735,1.07247 l -2.77727,0.51454 c -0.58892,0.093 -1.16545,0.25418 -1.71718,0.47114 -0.52073,0.16119 -0.93608,0.56413 -1.11586,1.07867 l -0.45255,0.0744 -0.52693,-3.40338 c 0.19837,-0.14252 0.41535,-0.25418 0.65092,-0.33477 0.52073,-0.15505 1.05387,-0.28517 1.5932,-0.39056 l 3.39099,-0.67572 c 1.10966,-0.10537 2.07055,-0.83068 2.4673,-1.87836 0.17357,-0.8121 0.17357,-1.6552 0,-2.4673 l -0.94229,-6.13726 -8.77194,1.38863 -0.43393,-2.77726 z m -7.99702,10.43953 c 0.10538,1.06626 0.53933,2.07054 1.23364,2.88264 0.82452,0.70052 1.94037,0.95468 2.98185,0.68192 1.24605,-0.0559 2.34331,-0.8431 2.77726,-2.01475 0.20458,-0.73772 0.23557,-1.51262 0.0868,-2.26272 l -1.01669,-6.58981 -6.93695,1.06628 z m 0,0 m 7.19112,-14.841 -2.4053,0.58273 -1.64901,-6.77577 -17.72983,4.34567 -0.66332,-2.77726 17.69884,-4.31467 -1.6552,-6.78817 2.39292,-0.58273 z m 0,0 m -22.0445,-26.50177 c -0.94849,0.33476 -1.80398,0.8989 -2.47351,1.64901 -1.05387,1.51261 -1.23364,3.47158 -0.47113,5.15157 0.27276,0.89889 0.71291,1.74199 1.28944,2.4859 0.76251,1.27703 2.30611,1.85977 3.71955,1.38863 0.91129,-0.21078 1.64899,-0.8617 1.97134,-1.73579 0.25418,-1.14066 0.30377,-2.31231 0.15505,-3.47157 l -0.23557,-2.77726 c -0.19217,-1.33285 -0.1487,-2.69049 0.12394,-4.01093 0.40915,-1.494 1.5808,-2.66566 3.08102,-3.06861 1.6242,-0.58274 3.42198,-0.45256 4.94081,0.36575 1.66759,1.00428 2.87645,2.62228 3.35998,4.50685 0.64472,1.78538 0.70672,3.73194 0.17977,5.55452 -0.63851,1.84118 -2.17593,3.22981 -4.0791,3.67616 l -0.81829,-2.5107 c 0.8431,-0.34715 1.5808,-0.89889 2.15114,-1.61181 0.78109,-1.35143 0.86789,-2.99423 0.23556,-4.42625 -0.26657,-1.20886 -1.01048,-2.26272 -2.05195,-2.92605 -0.8059,-0.44634 -1.75437,-0.52693 -2.62848,-0.24176 -0.88649,0.23556 -1.5622,0.96087 -1.72958,1.86597 -0.12395,1.27084 -0.0992,2.54789 0.0682,3.81253 l 0.23557,2.88884 c 0.14252,1.13447 0.0495,2.28753 -0.26657,3.39099 -0.55173,1.54362 -1.82878,2.71527 -3.41579,3.13681 -1.83497,0.77492 -3.9551,0.45876 -5.48012,-0.82449 -1.50022,-1.31423 -2.59749,-3.01903 -3.18022,-4.9222 -0.8059,-1.99615 -0.8059,-4.22788 0,-6.22403 0.8493,-1.80398 2.4611,-3.14302 4.40147,-3.63277 z m 0,0 m 9.59022,-14.03509 1.05388,2.62229 -19.24245,7.68086 -1.05389,-2.62848 z m 0,0 m -9.37326,-20.61248 1.38863,2.96945 -10.6441,16.53338 15.10137,-7.20353 1.15305,2.4115 -18.68452,8.92692 -1.38863,-2.77727 10.56351,-16.65736 -15.08896,7.20352 -1.15305,-2.4115 z m 0,0 m -4.23407,-7.51347 1.38863,2.47349 -18.04601,10.14816 -1.38863,-2.47349 z m 0,0 m -19.58342,226.9853 7.21593,-13.18579 2.22552,1.22125 -5.90168,10.78668 5.55452,3.01283 5.43674,-9.96838 2.11394,1.15305 -5.45534,9.96839 6.16206,3.37239 5.99466,-10.98505 2.16974,1.18404 -7.31511,13.37798 z m 0,0 m -1.82258,5.85829 c 1.7668,-0.43395 3.63277,-0.19838 5.23837,0.66951 l -1.53122,2.27513 c -1.14685,-0.48975 -2.4239,-0.58273 -3.63275,-0.26657 -1.31425,0.44635 -2.41771,1.34523 -3.11203,2.54169 -1.08486,1.51262 -1.41962,3.43437 -0.91748,5.21976 0.8245,2.20694 2.39911,4.05431 4.45725,5.20736 1.6862,1.25226 3.73194,1.92177 5.83349,1.90317 1.93416,-0.12394 3.68234,-1.20265 4.66183,-2.87645 1.09727,-1.50021 1.32664,-3.46537 0.59513,-5.17637 -0.48974,-1.08486 -1.17786,-2.06434 -2.03954,-2.88884 l 1.525,-2.26272 c 1.59941,1.28323 2.73387,3.05002 3.2236,5.03998 0.56414,2.40531 0.0559,4.93461 -1.38863,6.94315 -1.17784,1.85978 -3.02523,3.20501 -5.16396,3.75675 -2.77726,0.69431 -5.83969,-0.0806 -9.18729,-2.33092 -2.32471,-1.40723 -4.0667,-3.60176 -4.91599,-6.17445 -0.78731,-2.64708 -0.27277,-5.50493 1.38863,-7.70566 1.08486,-1.89076 2.87025,-3.2856 4.96559,-3.87452 z m 0,0 m -21.84613,26.89231 5.93888,-7.3027 c 0.79969,-1.04768 1.80398,-1.90938 2.95704,-2.54169 1.85357,-0.9051 4.07289,-0.55794 5.55452,0.87409 0.85549,0.63852 1.51261,1.51261 1.88457,2.5107 0.28517,0.93608 0.32235,1.92177 0.11157,2.87644 0.65711,-0.39675 1.40723,-0.60133 2.16974,-0.59512 0.90508,0.11775 1.75438,0.50213 2.44249,1.10966 l 2.21934,1.67999 c 0.45874,0.37815 0.96088,0.70052 1.50021,0.95468 0.46494,0.27897 1.04147,0.32237 1.54362,0.11157 l 0.35955,0.29136 -2.16974,2.66568 c -0.23558,-0.0559 -0.46495,-0.14268 -0.67572,-0.26038 -0.48354,-0.27897 -0.94849,-0.58272 -1.38863,-0.91748 l -2.77726,-2.05816 c -0.81829,-0.7563 -1.99615,-0.97947 -3.03762,-0.58272 -0.72531,0.42154 -1.35764,0.99188 -1.84737,1.6676 l -3.91793,4.8044 6.94316,5.55453 -1.7668,2.17594 z m 13.1052,-1.07246 c 0.71912,-0.79351 1.17786,-1.79159 1.30183,-2.85785 -0.0186,-1.08488 -0.58271,-2.08295 -1.50021,-2.66568 -0.86788,-0.8803 -2.18213,-1.15306 -3.32898,-0.69432 -0.68192,0.35337 -1.27705,0.85549 -1.73579,1.46922 l -4.16589,5.16398 5.48633,4.46964 z m 0,0 m -26.09881,14.63021 10.49531,-10.76809 1.81638,1.77299 -8.57975,8.80293 4.50065,4.38906 7.92264,-8.13962 1.71098,1.64281 -7.94122,8.13341 5.03998,4.8974 8.72854,-8.95171 1.76678,1.72339 -10.6503,10.91067 z m 0,0 m -17.92202,15.5663 3.06862,-2.59749 15.85148,9.52204 -6.73238,-17.1843 3.03762,-2.58509 13.37177,15.82668 -2.03954,1.73579 -7.89785,-9.34227 -1.38863,-1.6242 c -0.61373,-0.7687 -1.27703,-1.5746 -2.00236,-2.41769 l 6.76338,17.1719 -2.12634,1.79157 -15.82667,-9.49103 0.40296,0.48353 1.52501,1.7482 c 0.69432,0.78109 1.20886,1.38863 1.51882,1.72338 l 7.89783,9.34226 -2.05814,1.72339 z m 0,0 m -19.24245,13.22919 3.33519,-2.25033 14.74181,11.17724 -4.91601,-17.81044 3.31659,-2.23791 11.59259,17.1595 -2.21933,1.50022 -6.84397,-10.12337 c -0.23555,-0.34716 -0.62612,-0.94229 -1.15305,-1.76058 -0.52693,-0.81831 -1.10967,-1.6924 -1.73579,-2.62228 l 4.8726,17.79182 -2.30611,1.55601 -14.7108,-11.10284 0.34716,0.52694 1.38863,1.88457 c 0.60752,0.8493 1.04147,1.47542 1.31423,1.87836 l 6.84396,10.12958 -2.21933,1.50021 z m 0,0 m -2.15114,4.63704 c 2.24412,1.12825 4.0481,2.96323 5.15158,5.21976 1.39482,2.3867 1.94656,5.17016 1.56841,7.91022 -0.63854,2.85785 -2.44871,5.31897 -4.9842,6.78198 -2.54169,1.45683 -5.57932,1.78538 -8.36899,0.89269 -2.52308,-1.14686 -4.56883,-3.13062 -5.79008,-5.62271 -1.27084,-2.21934 -1.81637,-4.77962 -1.55601,-7.32751 0.37195,-3.10582 2.32471,-5.8025 5.16396,-7.12293 2.63468,-1.6862 5.93888,-1.95896 8.81533,-0.7315 z m 4.0667,12.79524 c 0.13014,-2.14495 -0.34716,-4.28368 -1.38863,-6.16206 -0.91129,-1.92796 -2.50449,-3.45298 -4.46964,-4.28987 -1.85978,-0.70671 -3.94273,-0.51454 -5.64752,0.51454 -1.78539,0.87409 -3.09343,2.49209 -3.58316,4.41386 -0.43395,2.3185 0.0248,4.71761 1.28944,6.70758 0.91748,1.85976 2.4239,3.36618 4.27747,4.28987 2.00236,0.82451 4.28368,0.60133 6.09387,-0.58272 1.93416,-0.87409 3.24219,-2.72148 3.42817,-4.83542 z m 0,0 m -24.98914,-3.67616 c 1.71719,0.61992 3.14302,1.84118 4.01711,3.44058 l -2.52929,1.04148 c -0.70053,-1.02908 -1.71719,-1.81019 -2.90126,-2.21934 -1.33283,-0.35336 -2.74627,-0.21697 -3.98611,0.39055 -1.74198,0.65713 -3.08722,2.07676 -3.65136,3.85593 -0.54553,2.29372 -0.24797,4.71143 0.83691,6.80058 0.71292,1.97136 2.05195,3.65756 3.80014,4.80441 1.67998,0.97328 3.73194,1.04147 5.47393,0.17977 1.74818,-0.63851 3.03142,-2.15114 3.37239,-3.97991 0.18596,-1.17786 0.1487,-2.38051 -0.11157,-3.53977 l 2.5231,-1.06007 c 0.61992,1.95897 0.58274,4.0667 -0.10537,6.00087 -0.86789,2.31852 -2.70907,4.1411 -5.03999,4.9842 -2.00854,0.90508 -4.28987,1.01048 -6.37281,0.29136 -2.71527,-0.9299 -4.84162,-3.267 -6.38523,-7.02375 -1.15305,-2.46109 -1.38863,-5.24456 -0.68192,-7.86063 0.7873,-2.64089 2.78347,-4.74862 5.37475,-5.69091 1.98376,-0.97948 4.27747,-1.12826 6.36662,-0.41535 z m 0,0 M 442.6694,111.4686 l 2.20692,3.36 -11.34462,14.60541 17.86624,-4.69283 2.19452,3.33519 -17.28349,11.39421 -1.48162,-2.23172 10.21636,-6.75099 1.76059,-1.12206 2.64087,-1.71098 -17.84142,4.66802 -1.52502,-2.31851 11.36942,-14.57443 -0.52695,0.34716 -1.91556,1.30184 -1.89076,1.30804 -10.20396,6.71378 -1.46922,-2.23173 z m 0,0 m -13.57635,-17.072716 5.21976,6.428616 c 1.6862,1.88457 2.34331,4.47585 1.7606,6.94315 -0.66953,2.41151 -2.13875,4.53165 -4.1659,6.00706 -1.57461,1.30804 -3.41579,2.25653 -5.39955,2.77726 -3.08101,0.94849 -6.42861,-0.16738 -8.32557,-2.77726 l -5.19498,-6.41001 z m -9.36086,17.550056 c 0.48355,0.60752 1.04768,1.14066 1.68001,1.5808 0.98567,0.60133 2.14493,0.8493 3.29178,0.70673 1.14066,-0.16119 2.23793,-0.54554 3.23602,-1.12208 0.64472,-0.34095 1.25224,-0.7501 1.81637,-1.20884 1.71099,-1.22745 3.00043,-2.94464 3.69475,-4.9284 0.44015,-1.82258 -0.0868,-3.73815 -1.38863,-5.08338 l -3.11201,-3.719546 -12.3551,10.024176 z m 0,0 m -0.88648,-28.361536 2.21933,2.27512 -9.59023,19.837576 -2.15114,-2.20693 2.96943,-5.870676 -5.6785,-5.82109 -6.00707,2.77726 -2.00236,-2.06435 z m -5.55453,11.86535 4.33328,-8.66034 -8.87113,3.99851 z m 0,0 m -11.07805,-25.34871 c 0.29757,1.79779 -0.0868,3.63896 -1.07867,5.16397 l -2.13873,-1.69239 c 1.37622,-2.39291 0.63231,-5.44913 -1.6924,-6.943153 -1.40102,-1.227449 -3.2918,-1.735788 -5.12677,-1.38243 -2.26893,0.626123 -4.23409,2.045753 -5.54832,3.992313 -1.41344,1.59321 -2.26272,3.60176 -2.41771,5.7219 -0.0433,1.93416 0.88649,3.76294 2.47349,4.87261 1.38863,1.23985 3.3414,1.6366 5.10818,1.04147 1.12206,-0.38435 2.16353,-0.98568 3.05003,-1.77918 l 2.18214,1.67999 c -1.41963,1.48162 -3.27941,2.4549 -5.30655,2.77726 -2.45491,0.35336 -4.9408,-0.38435 -6.80058,-2.02715 -1.76058,-1.32664 -2.93844,-3.2794 -3.3042,-5.45533 -0.45874,-2.77727 0.57034,-5.82729 3.09963,-8.96411 1.59941,-2.194533 3.92412,-3.738144 6.56499,-4.376667 2.69667,-0.57033 5.50493,0.16738 7.57548,1.983758 1.79159,1.283244 3.00044,3.223609 3.35999,5.387139 z m 0,0 m -17.53147,-15.225339 2.33092,1.624203 -11.86535,16.973526 -2.31852,-1.6242 z m 0,0 m -18.86428,-11.927345 8.0528,4.872607 c 1.14687,0.644721 2.14495,1.525013 2.92605,2.585084 1.18406,1.710991 1.14686,3.986114 -0.0806,5.659909 -0.94848,1.88457 -2.95704,2.988036 -5.05238,2.777261 0.47113,0.595127 0.78111,1.301842 0.88648,2.058149 0.006,0.917488 -0.26036,1.810179 -0.7625,2.578885 l -1.38863,2.430104 c -0.30376,0.508339 -0.54554,1.047675 -0.73771,1.611805 -0.21077,0.50214 -0.17357,1.08487 0.11157,1.55601 l -0.23556,0.40295 -2.94464,-1.77918 c 0.0127,-0.24797 0.062,-0.48974 0.15489,-0.72532 0.21697,-0.502134 0.46494,-0.991874 0.73772,-1.469216 l 1.66139,-3.037628 c 0.63853,-0.91749 0.70052,-2.113943 0.15505,-3.081025 -0.51454,-0.66332 -1.15926,-1.208853 -1.90317,-1.599405 l -5.30035,-3.205008 -4.59365,7.594073 -2.4053,-1.388631 z m 2.88884,12.826237 c 0.8803,0.607525 1.92796,0.923687 2.99424,0.905088 1.07247,-0.179777 1.98995,-0.874093 2.4425,-1.859773 0.75011,-0.98568 0.83689,-2.318516 0.22316,-3.390986 -0.44634,-0.607525 -1.02287,-1.103465 -1.69238,-1.456821 l -5.70331,-3.45298 -3.66376,6.050461 z m 0,0 m -21.58576,-22.211891 13.52055,6.571198 -1.11587,2.275122 -11.10284,-5.374743 -2.77726,5.65371 10.23495,4.965594 -1.06007,2.169736 -10.21636,-4.971795 -3.06863,6.31703 11.24543,5.467732 -1.07867,2.206931 -13.70652,-6.664187 z m 0,0 m -21.03404,-8.300788 2.65327,1.004279 -3.01282,8.009421 9.94978,3.756742 3.04383,-8.009422 2.64708,1.004278 -7.31511,19.434628 -2.64708,-1.004277 3.40959,-9.063295 -9.98078,-3.818734 -3.42819,9.069494 -2.64708,-1.004279 z m 0,0 m -19.29825,-5.579319 8.98271,2.529292 c 1.58701,0.359555 2.97564,1.326638 3.86212,2.69047 0.81831,1.41343 0.98569,3.11822 0.45876,4.668032 -0.40296,1.487819 -1.32045,2.789659 -2.59749,3.663752 -1.48163,0.911289 -3.298,1.097267 -4.9284,0.49594 l -6.21784,-1.803979 -2.33712,8.455768 -2.77106,-0.75011 z m 9.72041,5.666108 c -0.6819,-0.533134 -1.4754,-0.905089 -2.3185,-1.097266 l -5.34375,-1.500216 -1.93417,6.943153 5.43053,1.456821 c 1.02287,0.322362 2.12635,0.322362 3.14923,0 0.99806,-0.440145 1.71098,-1.357633 1.89075,-2.430103 0.42156,-1.196454 0.0744,-2.529292 -0.87409,-3.372389 z m 0,0 m -31.08299,4.345671 c -0.16738,0.991879 -0.0744,2.008555 0.26655,2.957039 0.82451,1.642799 2.4487,2.740066 4.28989,2.882648 0.91748,0.16738 1.85357,0.16738 2.77105,0 1.48163,-0.08059 2.70907,-1.171657 2.95704,-2.634678 0.24797,-0.892691 0.0371,-1.853575 -0.56412,-2.554089 -0.8865,-0.756307 -1.89077,-1.363833 -2.97564,-1.791581 l -2.56649,-1.122064 c -1.25224,-0.48354 -2.42391,-1.171657 -3.45918,-2.027152 -1.09727,-1.084868 -1.53741,-2.671874 -1.16545,-4.165891 0.26037,-1.704793 1.23365,-3.223607 2.68426,-4.165892 1.6738,-0.979481 3.66377,-1.258447 5.54834,-0.787304 1.89696,0.297563 3.64514,1.177855 5.01518,2.523092 1.29564,1.456823 1.76678,3.465376 1.24605,5.343747 l -2.57889,-0.471142 c 0.0992,-0.905089 -0.0371,-1.822577 -0.39056,-2.665674 -0.81829,-1.357635 -2.23792,-2.237927 -3.81873,-2.361913 -1.19026,-0.334759 -2.46729,-0.192176 -3.55217,0.402952 -0.7687,0.502138 -1.29563,1.295641 -1.45682,2.194531 -0.22317,0.892691 0.093,1.834976 0.80591,2.417706 1.05387,0.706713 2.18833,1.301841 3.37239,1.772983 l 2.65327,1.171658 c 1.04147,0.421547 1.98376,1.053871 2.77107,1.859772 1.09107,1.215053 1.5064,2.895047 1.11586,4.482053 -0.13014,1.983758 -1.35764,3.731946 -3.18022,4.525449 -1.87216,0.669518 -3.89932,0.8183 -5.84588,0.415348 -2.13254,-0.260367 -4.08531,-1.345235 -5.44294,-3.012831 -1.16545,-1.599406 -1.5622,-3.626558 -1.09726,-5.554523 z m 0,0 m -6.39762,-12.162917 c 1.23985,2.182134 1.72338,4.705227 1.38863,7.191123 -0.1487,2.758663 -1.20886,5.387142 -3.03144,7.470088 -2.10154,2.033352 -4.9656,3.099624 -7.89164,2.919844 -2.91984,-0.173579 -5.6413,-1.562209 -7.48869,-3.83733 -1.46922,-2.349514 -2.08913,-5.132976 -1.74818,-7.885438 0.17359,-2.54789 1.14687,-4.977993 2.77726,-6.943153 2.02096,-2.392909 5.13298,-3.576965 8.2326,-3.11822 3.12442,0.03099 6.02567,1.605603 7.76146,4.203086 z m -3.62657,12.925423 c 1.27705,-1.735788 2.03336,-3.793936 2.18214,-5.945074 0.29136,-2.113941 -0.20458,-4.25888 -1.38863,-6.038064 -1.17786,-1.605604 -3.01903,-2.597483 -5.0152,-2.678073 -1.97134,-0.241769 -3.94891,0.396752 -5.41193,1.735788 -1.6366,1.698594 -2.56028,3.955118 -2.59748,6.31703 -0.25418,2.058149 0.17357,4.141095 1.22125,5.926477 1.22125,1.791581 3.24839,2.86405 5.41813,2.857851 2.10155,0.33476 4.21549,-0.502139 5.52353,-2.175935 z m 0,0 M 236.27178,13.1176 h 4.02331 l 6.23024,17.419875 5.6413,-17.599653 h 3.97993 l 0.33474,20.711673 h -2.67807 l -0.19217,-12.21871 c 0,-0.427747 0,-1.122063 0,-2.107741 0,-0.98568 0,-2.027153 0,-3.136818 l -5.55452,17.562457 h -2.77726 l -6.24884,-17.37028 v 0.638521 c 0,0.502139 0,1.277045 0,2.318517 0,1.041473 0.0868,1.791581 0.0868,2.29372 l 0.19217,12.212511 h -2.67807 z m 0,0 m -3.50257,0.278965 0.26657,2.454902 -6.94316,0.750108 1.95896,18.101792 -2.77726,0.303762 -1.94036,-18.126588 -6.94315,0.73151 -0.30377,-2.343313 z m 0,0 m -27.16509,3.688551 3.11202,-0.582729 11.10284,19.01928 -3.02523,0.557931 -3.2484,-5.709503 -7.98462,1.463022 -1.09727,6.509205 -2.77106,0.514537 z m 6.77577,11.109044 -4.77962,-8.424771 -1.60561,9.602628 z m 0,0 m -42.18585,-1.6366 7.87923,-2.516892 c 2.38672,-0.892691 5.06479,-0.557933 7.15394,0.905089 1.99615,1.500217 3.44058,3.626557 4.09149,6.038064 0.66332,1.946561 0.8865,4.010911 0.65712,6.050462 -0.24177,3.223606 -2.51069,5.938874 -5.6413,6.750976 l -7.85445,2.510693 z m 12.91923,15.08896 c 0.74391,-0.216974 1.44441,-0.545534 2.08295,-0.973283 0.91748,-0.688114 1.5684,-1.667596 1.85976,-2.777261 0.27278,-1.115862 0.31616,-2.275121 0.14251,-3.415782 -0.0992,-0.719112 -0.25416,-1.438224 -0.45874,-2.13874 -0.52072,-2.033352 -1.6552,-3.862128 -3.24839,-5.23216 -1.53123,-1.072471 -3.50878,-1.283244 -5.23217,-0.570332 l -4.63703,1.487818 4.82921,15.144753 z m 0,0 m -33.82928,-6.472011 3.02523,-1.301841 16.09323,11.326018 -6.58358,-15.380323 2.46109,-1.053872 8.14581,19.044076 -2.90124,1.23365 -16.21103,-11.245429 6.57739,15.367926 -2.47349,1.060071 z m 0,0 m -13.13,6.831566 2.77726,-1.512615 16.54578,14.642614 -2.77726,1.456821 -4.8478,-4.426259 -7.14773,3.874527 0.97328,6.521604 -2.52929,1.388631 z m 9.9126,8.536358 -7.15394,-6.540201 1.38863,9.633624 z m 0,0 m -27.9462,4.134896 c 1.80398,0.210775 3.47158,1.084868 4.68043,2.448702 l -2.22552,1.593205 c -1.93416,-1.958961 -5.05858,-2.064348 -7.12295,-0.23557 -1.5436,1.035272 -2.53548,2.715268 -2.69046,4.568842 -0.006,2.355713 0.82449,4.637036 2.34331,6.441016 1.14686,1.76058 2.82685,3.10582 4.79203,3.83113 1.85976,0.55793 3.87451,0.16118 5.37473,-1.07247 1.56221,-1.01048 2.4735,-2.77106 2.38671,-4.63703 -0.0806,-1.184059 -0.38436,-2.343318 -0.90508,-3.409586 l 2.22552,-1.599406 c 1.04147,1.766784 1.48163,3.824933 1.24605,5.858282 -0.32856,2.4549 -1.71719,4.64324 -3.78774,5.99467 -1.76059,1.33904 -3.95512,1.95276 -6.14965,1.72339 -2.77726,-0.33476 -5.45533,-2.13874 -7.80485,-5.39954 -1.66139,-2.13874 -2.52308,-4.798214 -2.4301,-7.507283 0.17978,-2.752464 1.64899,-5.263158 3.96131,-6.763376 1.711,-1.394829 3.90553,-2.058148 6.10626,-1.834976 z m 0,0 m -19.391234,12.776645 2.188344,-1.791585 13.14858,16.006445 -2.19453,1.79158 z m 0,0 m -16.82475,15.20054 2.39911,-2.26272 18.975894,5.14537 -11.450024,-12.21251 1.95277,-1.83498 14.177684,15.11996 -2.30613,2.15114 -19.075074,-5.02759 11.42521,12.18771 -1.95897,1.83498 z m 0,0 m -10.02418,10.89827 2.09536,-2.37431 20.42029,8.14581 -2.03954,2.306116 -6.02567,-2.516896 -5.38714,6.081456 3.13681,5.85829 -1.91556,2.08295 z m 12.21251,4.64943 -8.9517,-3.70714 4.63702,8.561146 z m 0,0 m -28.6777,16.155226 8.96411,-12.06372 2.04575,1.51261 -7.3461,9.8754 5.05238,3.74433 6.77577,-9.15007 1.92798,1.38863 -6.78819,9.10669 5.63511,4.16589 7.4453,-9.925 1.97137,1.48782 -9.0943,12.21252 z m 0,0 m -3.19261,7.47009 c 1.7482,-0.52073 3.62035,-0.36576 5.26316,0.42775 l -1.38863,2.33712 c -1.17166,-0.44635 -2.4611,-0.47734 -3.65135,-0.0992 -1.28945,0.48973 -2.35572,1.43202 -3.00044,2.65327 -1.02288,1.54982 -1.28324,3.49017 -0.69432,5.25696 0.8989,2.16974 2.5355,3.95512 4.62465,5.02759 1.73579,1.17786 3.81253,1.76678 5.91407,1.66759 1.93417,-0.18597 3.65135,-1.33904 4.56265,-3.05622 1.04767,-1.54361 1.19646,-3.52736 0.39054,-5.20737 -0.52693,-1.05387 -1.25845,-1.99615 -2.15114,-2.77726 l 1.38863,-2.33092 c 1.6552,1.20886 2.85787,2.93225 3.42819,4.90362 0.64472,2.36809 0.22318,4.90359 -1.15305,6.93694 -1.08488,1.94037 -2.87645,3.3786 -4.9966,4.02951 -2.77726,0.80591 -5.87068,0.15505 -9.28646,-1.94656 -2.37432,-1.31423 -4.20309,-3.42819 -5.16398,-5.96987 -0.91748,-2.59749 -0.54553,-5.47394 0.99809,-7.75526 1.02907,-1.96516 2.79586,-3.44058 4.91599,-4.0977 z m 0,0 m -9.64602,19.24245 c 2.47349,-0.40914 5.02138,0.0127 7.22832,1.20265 2.52929,1.10967 4.61224,3.03764 5.91408,5.47394 1.37003,2.74626 1.30184,5.98847 -0.17978,8.67275 -1.10966,2.63467 -3.35999,4.61843 -6.10626,5.38714 -2.72146,0.55793 -5.54832,0.1487 -7.99702,-1.15307 -2.32471,-1.05387 -4.26508,-2.80205 -5.55452,-5.00899 -1.52502,-2.73386 -1.52502,-6.06905 0,-8.80292 1.57461,-3.28559 3.80634,-5.20736 6.69518,-5.7715 z m 10.81148,7.96603 c -1.17165,-1.81017 -2.83306,-3.2546 -4.79201,-4.16589 -1.87218,-1.02288 -4.05431,-1.31423 -6.13105,-0.83069 -1.92177,0.52073 -3.49638,1.89076 -4.27749,3.71955 -0.92369,1.76678 -1.02906,3.84352 -0.29136,5.69089 1.01048,2.12635 2.78966,3.79395 4.9842,4.66804 1.83498,0.95468 3.93651,1.28944 5.98227,0.95468 2.10773,-0.51454 3.82492,-2.03335 4.58124,-4.06671 1.07866,-1.84737 1.05387,-4.14108 -0.0559,-5.96987 z m 0,0 m -30.01054,30.92802 0.88649,-2.64707 17.29589,5.80249 3.30421,-9.84439 2.34331,0.7935 -4.1597,12.49147 z m 0,0 m -4.097699,15.31214 0.75011,-3.08103 21.889539,-2.41769 -0.71912,2.98803 -6.5402,0.63852 -1.91557,7.88543 5.55453,3.65136 -0.68192,2.77726 z m 12.962619,-1.6366 -9.63362,0.94229 8.10861,5.31894 z m 0,0 m -17.971608,29.66339 0.483542,-3.26081 18.045996,-7.78625 -16.54578,-2.4301 0.384354,-2.65329 20.494696,3.01284 -0.45874,3.12442 -18.045999,7.92884 16.545789,2.4425 -0.40296,2.59748 z m 0,0 m 2.287522,7.20972 c 2.12634,-1.33904 4.624635,-1.94037 7.122926,-1.72339 2.77107,0.0495 5.44294,1.02287 7.59408,2.77726 2.11394,2.02095 3.2856,4.8354 3.2298,7.76144 -0.0559,2.92605 -1.33283,5.69091 -3.52117,7.63128 -2.28752,1.5808 -5.05238,2.31232 -7.81724,2.07054 -2.554091,-0.0559 -5.02759,-0.90509 -7.07954,-2.43011 -2.473497,-1.92175 -3.775339,-4.99039 -3.440579,-8.1086 0.16118,-3.67616 1.46922,-6.33563 3.911723,-7.97842 z m 13.061806,3.10582 c -1.78538,-1.20886 -3.88073,-1.88457 -6.03806,-1.94037 -2.12015,-0.21077 -4.246485,0.36576 -5.969875,1.62421 -1.562209,1.23364 -2.473499,3.11202 -2.4673,5.10817 -0.167378,1.97755 0.545534,3.93032 1.940365,5.34375 1.766784,1.556 4.060503,2.39291 6.41622,2.33092 2.06434,0.16737 4.13489,-0.34716 5.88308,-1.45682 1.74199,-1.30186 2.72767,-3.3786 2.62228,-5.55453 0.26657,-2.12014 -0.65092,-4.20929 -2.38671,-5.45533 z m 0,0 m -16.613974,22.43506 v -2.77726 l 20.699274,-0.41535 v 2.77726 z m 0,0 m 0,4.27748 2.454901,-0.19838 0.539335,6.94315 18.188578,-1.38863 0.22318,2.77727 -18.188586,1.38863 0.545534,6.93694 -2.4611,0.19838 z m 0,0 m 2.888849,27.30146 -0.477342,-3.13681 19.285847,-10.56352 0.47115,3.04384 -5.8025,3.06243 1.23365,8.0404 6.47202,1.27705 0.42774,2.84546 z m 11.381815,-6.4534 -8.567359,4.53783 9.553039,1.89078 z m 0,0 m -5.34375,34.26321 -0.805904,-3.21121 13.743724,-14.05988 -16.22962,4.0419 -0.595127,-2.59748 20.097947,-5.01518 0.76251,3.06862 -13.68793,14.20247 16.21722,-4.03571 0.65093,2.60369 z m 0,0 m 273.572624,146.33935 13.9669,-3.40959 0.59513,2.46731 -11.23304,2.77726 1.50023,6.10624 9.86919,-2.4301 0.58272,2.40531 -9.8692,2.41771 2.25033,9.14389 -2.77726,0.66951 z m 0,0 m -4.55645,3.98612 c 1.73579,1.81637 2.82067,4.15348 3.08103,6.65177 0.52074,2.71528 0.11157,5.52353 -1.16545,7.97844 -1.56222,2.4797 -4.0853,4.19068 -6.96796,4.71762 -2.88265,0.52693 -5.85208,-0.17357 -8.1892,-1.94036 -1.98995,-1.93416 -3.25461,-4.50065 -3.57077,-7.25931 -0.44634,-2.5169 -0.0992,-5.10818 1.00429,-7.41431 1.38863,-2.80205 4.14109,-4.68662 7.25932,-4.96558 3.04381,-0.71292 6.24263,0.12394 8.54874,2.23173 z m -0.47113,13.42755 c 0.8307,-1.98995 1.08486,-4.17208 0.7253,-6.29223 -0.21077,-2.12633 -1.20264,-4.1039 -2.77726,-5.55452 -1.54361,-1.28324 -3.58936,-1.79778 -5.55452,-1.38243 -1.97136,0.24797 -3.73814,1.32663 -4.86021,2.96943 -1.19025,2.03336 -1.5622,4.44486 -1.04147,6.74478 0.24797,2.05816 1.15926,3.98612 2.59749,5.48633 1.6056,1.44443 3.82494,2.00236 5.92647,1.48163 2.18213,-0.12395 4.1039,-1.46303 4.9842,-3.45299 z m 0,0 M 260.98196,466.3257 v 2.46731 l -6.94315,0.11156 0.29137,18.24437 h -2.77726 l -0.29137,-18.20098 -6.94316,0.11157 v -2.46111 z m 0,0 m -35.2241,-1.02907 3.3042,0.23557 9.08189,17.45087 1.22125,-16.65737 2.66568,0.19217 -1.51262,20.65589 -3.13682,-0.22318 -9.23067,-17.43226 -1.22125,16.65736 -2.68428,-0.19217 z m 0,0 m -18.16998,-2.84546 14.84098,2.4301 -0.41535,2.5107 -12.13192,-1.99616 -1.01667,6.20545 11.22063,1.84117 -0.39055,2.36192 -11.21443,-1.82878 -1.14066,6.93696 12.34268,2.02715 -0.40294,2.4301 -15.03317,-2.47349 z m 0,0 m -23.04259,-5.7343 3.88693,1.04148 1.23364,18.44894 10.23495,-15.46091 3.84354,1.02289 -5.33135,20.00494 -2.57889,-0.6819 3.14922,-11.80957 c 0.11157,-0.41535 0.29136,-1.08486 0.57033,-2.02715 0.27277,-0.94849 0.53932,-1.94657 0.8307,-3.02523 l -10.20396,15.34932 -2.67807,-0.70671 -1.27705,-18.41795 -0.16738,0.60752 c -0.12395,0.48355 -0.30376,1.23366 -0.55793,2.25033 -0.24797,1.01048 -0.41535,1.76059 -0.53933,2.21933 l -3.10582,11.81576 -2.58509,-0.68193 z m 0,0 m -1.80398,-0.70671 -0.84931,2.30611 -6.55259,-2.41769 -6.32942,17.10371 -2.66568,-0.98568 6.34803,-17.10372 -6.55261,-2.36191 0.85551,-2.29992 z m 0,0 m -31.83311,-13.32838 8.52395,4.01093 c 1.20886,0.51452 2.29372,1.28323 3.18022,2.25031 1.35143,1.587 1.55601,3.84974 0.51454,5.65371 -0.76872,1.94657 -2.65329,3.22981 -4.74863,3.22981 0.53933,0.53933 0.91748,1.22125 1.09726,1.95897 0.0992,0.91127 -0.0682,1.83497 -0.48973,2.65327 l -1.09728,2.55409 c -0.24797,0.53933 -0.43393,1.09726 -0.56411,1.67999 -0.15505,0.52073 -0.0495,1.09107 0.27275,1.52502 l -0.19217,0.41535 -3.12441,-1.45682 c 0.006,-0.24178 0.0371,-0.48355 0.0992,-0.71912 0.16118,-0.52694 0.35335,-1.04148 0.57033,-1.54361 l 1.31424,-3.19261 c 0.53933,-0.97948 0.47114,-2.18213 -0.17977,-3.09342 -0.58274,-0.60133 -1.27705,-1.07247 -2.05195,-1.38863 l -5.55453,-2.64088 -3.77534,8.04041 -2.54169,-1.19644 z m 4.16589,12.49768 c 0.94228,0.50214 2.02094,0.70671 3.08101,0.56413 1.04148,-0.27896 1.87838,-1.06626 2.21934,-2.09534 0.64472,-1.06007 0.58892,-2.39911 -0.13633,-3.39719 -0.49594,-0.60132 -1.12206,-1.07866 -1.83497,-1.38863 l -6.03806,-2.77726 -3.01283,6.41003 z m 0,0 m -15.42372,-18.89529 2.77726,1.61181 -3.97372,21.66635 -2.64708,-1.55601 1.26465,-6.44101 -6.94315,-4.15971 -5.06479,4.15971 -2.4859,-1.45683 z m -2.15114,12.90682 1.85977,-9.50963 -7.48249,6.22403 z m 0,0 m -16.58918,-25.24951 7.61887,5.27556 c 1.37623,0.87409 2.37432,2.23791 2.77726,3.81873 0.30997,1.60561 -0.0992,3.267 -1.10965,4.55023 -0.85551,1.28945 -2.15735,2.21934 -3.65137,2.6099 -1.69859,0.37815 -3.47158,-0.0495 -4.81681,-1.14687 l -5.31894,-3.68234 -4.978,7.19112 -2.30612,-1.59321 z m 7.31511,8.53635 c -0.47115,-0.72531 -1.09727,-1.34523 -1.83497,-1.80397 l -4.55025,-3.10584 -4.0791,5.8955 4.55025,3.15541 c 0.85549,0.65093 1.88457,1.02908 2.95703,1.07867 1.08487,-0.0806 2.05815,-0.70672 2.58508,-1.6614 0.8493,-0.99188 0.99808,-2.41151 0.37196,-3.55837 z m 0,0 m -21.83373,-20.33352 11.60498,9.59023 -1.6242,1.95897 -9.48484,-7.84205 -4.02332,4.77341 8.74714,7.25932 -1.53122,1.84738 -8.74093,-7.20353 -4.488254,5.41195 9.621234,7.95363 -1.56841,1.89076 -11.728984,-9.72042 z m 0,0 m -14.661234,-14.23347 5.87069,5.83351 c 1.89698,1.70477 2.833064,4.23406 2.498304,6.75717 -0.409154,2.4673 -1.624214,4.73002 -3.452984,6.42861 -1.41342,1.47542 -3.13062,2.62227 -5.02759,3.37239 -2.96943,1.26464 -6.41622,0.50833 -8.57975,-1.88457 l -5.84588,-5.81489 z m -7.42668,18.43656 c 0.53933,0.55174 1.15306,1.02287 1.82877,1.38863 1.04768,0.50214 2.23794,0.62612 3.36,0.34716 1.12206,-0.27897 2.16974,-0.7687 3.09961,-1.45683 0.58894,-0.41535 1.14687,-0.88028 1.66141,-1.38863 1.57461,-1.40102 2.67186,-3.2546 3.15541,-5.30035 0.24176,-1.85357 -0.48355,-3.70094 -1.91556,-4.90359 l -3.45919,-3.42819 -11.20202,11.28882 z m 0,0 m -16.18622,-18.92009 1.87217,2.26273 -2.37432,1.95895 -1.87216,-2.27512 z m 0,0 m -8.16441,-16.83715 c -0.8121,0.59513 -1.45062,1.40103 -1.84737,2.33092 -0.55174,1.75438 -0.13013,3.67615 1.10965,5.03998 0.55174,0.76871 1.22127,1.43822 1.98997,1.98376 1.12826,0.95469 2.76486,1.00429 3.95512,0.12394 0.8121,-0.46494 1.33283,-1.31425 1.38863,-2.25033 -0.0992,-1.15926 -0.40915,-2.29992 -0.90509,-3.35999 l -1.07867,-2.56649 c -0.58273,-1.21504 -0.96088,-2.51688 -1.11587,-3.85592 -0.0433,-1.53741 0.71912,-2.98805 2.01475,-3.81873 1.36384,-1.06007 3.11823,-1.48782 4.81682,-1.16547 1.89696,0.44016 3.54597,1.61181 4.58124,3.26081 1.16545,1.51881 1.82877,3.35999 1.89078,5.27556 -0.062,1.95276 -1.10967,3.73814 -2.77726,4.74862 l -1.54362,-2.13874 c 0.70052,-0.58893 1.23364,-1.33904 1.55601,-2.19453 0.33476,-1.54362 -0.0868,-3.15542 -1.14066,-4.33328 -0.62612,-1.06627 -1.6552,-1.84737 -2.85785,-2.16353 -0.8989,-0.16738 -1.82879,0.0433 -2.56649,0.58272 -0.7749,0.49594 -1.19646,1.39483 -1.08486,2.30612 0.27896,1.23985 0.68811,2.4549 1.22125,3.60797 l 1.12825,2.67807 c 0.48354,1.04147 0.74391,2.16354 0.77492,3.3042 -0.0559,1.6366 -0.91129,3.14301 -2.28753,4.0295 -1.49402,1.28944 -3.58316,1.6366 -5.41813,0.91129 -1.82259,-0.7935 -3.39099,-2.08915 -4.52546,-3.73194 -1.35763,-1.6614 -2.02715,-3.78774 -1.85977,-5.92648 0.26657,-1.97756 1.38863,-3.74434 3.06862,-4.81681 z m 0,0 m -8.59214,-6.5278 1.5808,2.4859 -2.59128,1.6552 -1.58701,-2.4859 z m 0,0 m 6.12484,-24.83418 -11.23302,6.14965 c -1.16547,0.59513 -2.15735,1.47543 -2.88886,2.5541 -0.91748,1.48782 -0.88649,3.37239 0.0682,4.82921 0.7563,1.82877 2.51069,3.05002 4.48826,3.11201 1.22744,-0.0868 2.41769,-0.45874 3.46537,-1.09725 l 11.23304,-6.14965 1.38863,2.48588 -10.20396,5.55452 c -1.71719,1.05389 -3.64516,1.7048 -5.64752,1.91559 -2.77726,0.093 -5.05238,-1.38864 -6.73237,-4.46967 -1.68,-3.08103 -1.73578,-5.7777 -0.14251,-8.08381 1.25845,-1.56841 2.85166,-2.83925 4.66804,-3.71955 l 10.20396,-5.54831 z m 0,0"/><path fill="#fff" d="m 234.67238,125.71446 h -13.07421 c -3.55837,0 -10.7061,2.67807 -10.7061,10.17296 v 32.91798 c 0,5.07718 6.55261,9.894 10.7061,9.894 h 13.07421 c 4.76102,0 10.70609,-5.7157 10.70609,-9.894 v -32.91798 c -0.0559,-2.77107 -1.21505,-5.41194 -3.22361,-7.3213 -2.01475,-1.91558 -4.70522,-2.93845 -7.48248,-2.85166 z m 0,39.53877 c 0,1.92798 -1.56841,3.49638 -3.49638,3.49638 h -6.08146 c -1.93416,0 -3.49637,-1.5684 -3.49637,-3.49638 v -26.11741 c 0,-1.92796 1.56221,-3.49637 3.49637,-3.49637 h 6.08146 c 1.92797,0 3.49638,1.56841 3.49638,3.49637 z m 0,0 m 61.91185,13.44617 v -42.76859 c 0,-6.59599 7.12293,-10.21635 10.69369,-10.21635 h 13.0866 c 5.33135,0 10.67509,3.62036 10.67509,10.21635 v 42.76859 h -10.67509 v -20.01736 h -13.0866 v 20.01736 z m 23.78029,-38.86926 c 0.0309,-1.03527 -0.35956,-2.03955 -1.09107,-2.77727 -0.73151,-0.7377 -1.72958,-1.14066 -2.76487,-1.12206 h -5.6661 c -2.00855,0.17359 -3.55217,1.85358 -3.55217,3.87454 v 8.72853 h 13.09281 z m 0,0 m -66.56129,38.86926 v -42.76859 c 0,-6.59599 7.12295,-10.21635 10.68751,-10.21635 h 13.1486 c 5.33134,0 10.67509,3.62036 10.67509,10.21635 v 42.76859 h -10.67509 v -20.01736 h -13.09281 v 20.01736 z m 23.78031,-38.86926 c 0.0186,-1.03527 -0.38436,-2.03336 -1.12206,-2.76487 -0.73152,-0.7315 -1.7296,-1.12825 -2.76487,-1.10346 h -5.63511 c -2.01475,0.16738 -3.56456,1.85357 -3.57076,3.86833 v 8.70374 h 13.1486 z m 0,0 m -85.58676,38.86926 h 10.67509 v -42.76859 c 0,-5.69091 -5.35615,-10.21635 -12.49147,-10.21635 h -21.94532 v 52.98494 h 10.71849 v -42.76859 h 9.8382 c 2.08294,0 3.26081,1.48782 3.26081,3.87454 z m 0,0"/></svg>